<svg width="177" height="210" viewBox="0 0 177 210" fill="none" xmlns="http://www.w3.org/2000/svg">
<path opacity="0.3" d="M160.5 210C158.741 210 157.141 209.571 155.702 208.713C154.263 207.855 153.111 206.683 152.247 205.198C151.416 203.68 151 201.947 151 200C151 198.053 151.416 196.337 152.247 194.851C153.111 193.333 154.263 192.145 155.702 191.287C157.141 190.429 158.741 190 160.5 190C162.259 190 163.859 190.429 165.298 191.287C166.737 192.145 167.873 193.333 168.705 194.851C169.568 196.337 170 198.053 170 200C170 201.947 169.568 203.68 168.705 205.198C167.873 206.683 166.737 207.855 165.298 208.713C163.859 209.571 162.259 210 160.5 210ZM160.5 207.574C161.843 207.574 163.027 207.261 164.051 206.634C165.106 206.007 165.922 205.132 166.497 204.01C167.105 202.855 167.409 201.518 167.409 200C167.409 198.482 167.105 197.162 166.497 196.04C165.922 194.884 165.106 193.993 164.051 193.366C163.027 192.739 161.843 192.426 160.5 192.426C159.157 192.426 157.957 192.739 156.902 193.366C155.878 193.993 155.062 194.884 154.455 196.04C153.879 197.162 153.591 198.482 153.591 200C153.591 201.518 153.879 202.855 154.455 204.01C155.062 205.132 155.878 206.007 156.902 206.634C157.957 207.261 159.157 207.574 160.5 207.574ZM156.614 204.802V195.05H160.884C162.003 195.05 162.931 195.314 163.667 195.842C164.402 196.37 164.77 197.195 164.77 198.317C164.77 198.845 164.626 199.356 164.338 199.851C164.082 200.347 163.667 200.726 163.091 200.99L165.106 204.802H162.227L160.788 201.832H159.396V204.802H156.614ZM159.396 199.851H160.356C160.868 199.851 161.236 199.719 161.46 199.455C161.715 199.191 161.843 198.861 161.843 198.465C161.843 198.102 161.715 197.805 161.46 197.574C161.236 197.31 160.884 197.178 160.404 197.178H159.396V199.851Z" fill="url(#paint0_linear_816_767)"/>
<path fill-rule="evenodd" clip-rule="evenodd" d="M7.43292 208.481C2.97482 206.894 -0.000137329 202.691 -0.000137329 197.98L-0.000137329 11.1539C-0.000137329 4.99384 5.01894 0.000106812 11.2103 0.000106812L165.353 0.000106812C169.688 0.000106812 173.635 2.48669 175.488 6.3857C177.341 10.2847 176.769 14.8973 174.018 18.2309L19.8751 205.057C16.8708 208.698 11.891 210.069 7.43292 208.481ZM141.647 22.3077L22.4207 22.3077L22.4207 166.814L141.647 22.3077Z" fill="url(#paint1_linear_816_767)"/>
<path fill-rule="evenodd" clip-rule="evenodd" d="M6.47598 1.05398C10.4274 -0.783115 15.0927 -0.185427 18.4447 2.58732L136.519 100.258C140.156 103.266 141.506 108.214 139.894 112.633C138.282 117.051 134.055 119.995 129.32 119.995H11.2457C5.03514 119.995 0.000488281 114.997 0.000488281 108.833V11.1624C0.000488281 6.83127 2.52459 2.89107 6.47598 1.05398ZM22.4909 34.9945V97.6704H98.2605L22.4909 34.9945Z" fill="url(#paint2_linear_816_767)"/>
<defs>
<linearGradient id="paint0_linear_816_767" x1="160.5" y1="190" x2="160.5" y2="210" gradientUnits="userSpaceOnUse">
<stop stop-color="#F8F8F8"/>
<stop offset="1" stop-color="#F2F2F2" stop-opacity="0.6"/>
</linearGradient>
<linearGradient id="paint1_linear_816_767" x1="19.6181" y1="20.9135" x2="144.284" y2="46.2548" gradientUnits="userSpaceOnUse">
<stop stop-color="white"/>
<stop offset="1" stop-color="white" stop-opacity="0.6"/>
</linearGradient>
<linearGradient id="paint2_linear_816_767" x1="11.2457" y1="11.1624" x2="89.2531" y2="109.396" gradientUnits="userSpaceOnUse">
<stop stop-color="white"/>
<stop offset="1" stop-color="white" stop-opacity="0.6"/>
</linearGradient>
</defs>
</svg>
