<svg width="21" height="21" viewBox="0 0 21 21" fill="none" xmlns="http://www.w3.org/2000/svg">
<path d="M17.0625 6.96484C18.8984 6.96484 20.4316 5.44141 20.4316 3.60547C20.4316 1.75977 18.8984 0.246094 17.0625 0.246094C15.2266 0.246094 13.7031 1.75977 13.7031 3.60547C13.7031 5.44141 15.2266 6.96484 17.0625 6.96484ZM0.490234 14.6406C0.490234 16.5059 0.705078 17.8828 1.71094 18.8887C2.72656 19.8945 4.10352 20.1191 5.96875 20.1191H13.3809C15.2363 20.1191 16.623 19.8945 17.6387 18.8887C18.6445 17.873 18.8594 16.5059 18.8594 14.6406V8.12695C18.3516 8.3418 17.7852 8.44922 17.1992 8.43945C17.0234 8.44922 16.8477 8.42969 16.6816 8.40039V14.9141C16.6816 15.9395 16.5449 16.7793 16.0469 17.2969C15.5391 17.8047 14.6699 17.9414 13.6543 17.9414H5.69531C4.67969 17.9414 3.81055 17.7949 3.30273 17.2969C2.79492 16.7793 2.66797 15.9395 2.66797 14.9141V7.0332C2.66797 5.98828 2.79492 5.13867 3.30273 4.63086C3.81055 4.12305 4.67969 3.98633 5.71484 3.98633H12.2578C12.2285 3.81055 12.2188 3.64453 12.2188 3.46875C12.209 2.88281 12.3262 2.31641 12.5312 1.80859H5.94922C4.11328 1.80859 2.7168 2.0332 1.71094 3.03906C0.705078 4.05469 0.490234 5.42188 0.490234 7.25781V14.6406Z" fill="#5D6166"/>
</svg>
