<svg width="23" height="22" viewBox="0 0 23 22" fill="none" xmlns="http://www.w3.org/2000/svg">
<path d="M7.94531 7.7168C9.83008 7.7168 11.4023 6.1543 11.4023 4.26953C11.4023 2.375 9.83008 0.802734 7.94531 0.802734C6.05078 0.802734 4.47852 2.375 4.47852 4.26953C4.47852 6.1543 6.05078 7.7168 7.94531 7.7168ZM15.4062 7.7168C17.3008 7.7168 18.8633 6.1543 18.8633 4.26953C18.8633 2.375 17.291 0.802734 15.4062 0.802734C13.5215 0.802734 11.9492 2.375 11.9492 4.26953C11.9492 6.1543 13.5215 7.7168 15.4062 7.7168ZM7.94531 5.72461C7.1543 5.72461 6.4707 5.05078 6.4707 4.26953C6.4707 3.46875 7.1543 2.79492 7.94531 2.79492C8.73633 2.79492 9.41016 3.46875 9.41016 4.26953C9.41016 5.05078 8.73633 5.72461 7.94531 5.72461ZM15.4062 5.72461C14.6152 5.72461 13.9414 5.05078 13.9414 4.26953C13.9414 3.46875 14.6152 2.79492 15.4062 2.79492C16.1973 2.79492 16.8711 3.46875 16.8711 4.26953C16.8711 5.05078 16.1973 5.72461 15.4062 5.72461ZM4.21484 14.4062C6.09961 14.4062 7.67188 12.834 7.67188 10.9492C7.67188 9.06445 6.09961 7.49219 4.21484 7.49219C2.32031 7.49219 0.748047 9.06445 0.748047 10.9492C0.748047 12.834 2.32031 14.4062 4.21484 14.4062ZM11.6758 14.4062C13.5605 14.4062 15.1328 12.834 15.1328 10.9492C15.1328 9.05469 13.5605 7.49219 11.6758 7.49219C9.78125 7.49219 8.21875 9.05469 8.21875 10.9492C8.21875 12.834 9.78125 14.4062 11.6758 14.4062ZM19.1367 14.4062C21.0312 14.4062 22.6035 12.834 22.6035 10.9492C22.6035 9.06445 21.0312 7.49219 19.1367 7.49219C17.252 7.49219 15.6699 9.06445 15.6699 10.9492C15.6699 12.834 17.252 14.4062 19.1367 14.4062ZM4.21484 12.4141C3.41406 12.4141 2.74023 11.7402 2.74023 10.9492C2.74023 10.1582 3.41406 9.48438 4.21484 9.48438C5.00586 9.48438 5.67969 10.1582 5.67969 10.9492C5.67969 11.7402 5.00586 12.4141 4.21484 12.4141ZM11.6758 12.4141C10.8848 12.4141 10.2109 11.7402 10.2109 10.9492C10.2109 10.1582 10.8848 9.48438 11.6758 9.48438C12.4668 9.48438 13.1406 10.1582 13.1406 10.9492C13.1406 11.7402 12.4668 12.4141 11.6758 12.4141ZM19.1367 12.4141C18.3457 12.4141 17.6719 11.7402 17.6719 10.9492C17.6719 10.1582 18.3457 9.48438 19.1367 9.48438C19.9277 9.48438 20.6113 10.1582 20.6113 10.9492C20.6113 11.7402 19.9277 12.4141 19.1367 12.4141ZM7.94531 21.0957C9.83008 21.0957 11.4023 19.5137 11.4023 17.6289C11.4023 15.7441 9.83008 14.1816 7.94531 14.1816C6.05078 14.1816 4.47852 15.7441 4.47852 17.6289C4.47852 19.5234 6.05078 21.0957 7.94531 21.0957ZM15.4062 21.0957C17.291 21.0957 18.8633 19.5234 18.8633 17.6289C18.8633 15.7441 17.3008 14.1816 15.4062 14.1816C13.5215 14.1816 11.9492 15.7441 11.9492 17.6289C11.9492 19.5234 13.5215 21.0957 15.4062 21.0957ZM7.94531 19.1035C7.1543 19.1035 6.4707 18.4297 6.4707 17.6289C6.4707 16.8477 7.14453 16.1738 7.94531 16.1738C8.73633 16.1738 9.41016 16.8477 9.41016 17.6289C9.41016 18.4199 8.73633 19.1035 7.94531 19.1035ZM15.4062 19.1035C14.6152 19.1035 13.9414 18.4199 13.9414 17.6289C13.9414 16.8477 14.6152 16.1738 15.4062 16.1738C16.1973 16.1738 16.8711 16.8477 16.8711 17.6289C16.8711 18.4297 16.1973 19.1035 15.4062 19.1035Z" fill="url(#paint0_linear_712_972)"/>
<defs>
<linearGradient id="paint0_linear_712_972" x1="12.5" y1="-10" x2="12.5" y2="32" gradientUnits="userSpaceOnUse">
<stop stop-color="#5D6166"/>
<stop offset="1" stop-color="#5D6166"/>
</linearGradient>
</defs>
</svg>
