<svg width="19" height="26" viewBox="0 0 19 26" fill="none" xmlns="http://www.w3.org/2000/svg">
<path d="M0.490234 11.2598C0.470703 12.3535 0.910156 13.3691 1.76953 14.2188L5.7832 18.2422C4.23047 19.3164 3.56641 20.4004 3.56641 21.7871C3.56641 23.8965 5.23633 25.2832 7.13086 25.3125C8.17578 25.3418 9.12305 24.9512 9.78711 24.2969L16.7109 17.3438C18.4199 15.625 18.3027 13.5547 16.3984 11.6602L12.6875 7.94922L13.8496 6.78711C14.5625 6.07422 14.9727 5.15625 14.9727 4.23828C15.002 2.17773 13.4102 0.566406 11.3203 0.556641C10.1777 0.556641 9.26953 0.986328 8.2832 1.97266L1.55469 8.69141C0.880859 9.36523 0.5 10.2734 0.490234 11.2598ZM5.26562 7.93945L9.75781 3.44727C10.3535 2.8418 10.7344 2.65625 11.3203 2.65625C12.2285 2.65625 12.8926 3.31055 12.8926 4.20898C12.8926 4.59961 12.7168 4.9707 12.375 5.3125L7.48242 10.1953C7.26758 9.02344 6.47656 8.22266 5.26562 7.93945ZM2.62891 11.3672C2.62891 10.4297 3.24414 9.77539 4.10352 9.77539C5.01172 9.77539 5.64648 10.4492 5.64648 11.4258C5.64648 11.6406 5.64648 11.9336 5.51953 12.3145C5.19727 13.4863 6.66211 13.9844 7.35547 13.2812L11.2129 9.42383L14.9336 13.1348C16.0273 14.2188 16.0957 15 15.2363 15.8691L10.4805 20.625C10.2852 19.9219 9.82617 19.3457 8.9668 18.4766L3.60547 13.0859C2.85352 12.334 2.62891 11.9336 2.62891 11.3672ZM5.65625 21.8555C5.65625 21.0645 6.13477 20.4688 7.29688 19.7559L7.56055 20.0098C8.41992 20.8887 8.67383 21.2891 8.67383 21.8555C8.68359 22.6172 8.00977 23.2227 7.13086 23.2227C6.34961 23.2227 5.65625 22.666 5.65625 21.8555Z" fill="#5D6166"/>
</svg>
